<svg xmlns="http://www.w3.org/2000/svg" height="100" width="100">
  <path d="M51.57 8.24a10.001 10.001 0 0 0-6.59 17.698L61.463 40H10.619a10.001 10.001 0 1 0 0 20h50.844L44.98 74.064A10.001 10.001 0 1 0 57.963 89.28L93.8 58.7a10.001 10.001 0 0 0 4.892-8.959 10.001 10.001 0 0 0-.017-.328 10.001 10.001 0 0 0-.031-.433 10.001 10.001 0 0 0-4.81-7.647l-35.872-30.61A10.001 10.001 0 0 0 51.57 8.24z" style="line-height:normal;text-indent:0;text-align:start;text-decoration-line:none;text-decoration-style:solid;text-decoration-color:#000;text-transform:none;block-progression:tb;isolation:auto;mix-blend-mode:normal" color="#000" font-weight="400" font-family="sans-serif" white-space="normal" overflow="visible" fill-rule="evenodd"/>
</svg>
