<svg xmlns="http://www.w3.org/2000/svg" height="100" width="100">
  <path d="M12.936 2.932a10.001 10.001 0 0 0-6.975 17.19L35.85 50.01 5.963 79.896a10.001 10.001 0 1 0 14.14 14.143l29.89-29.887 29.902 29.903a10.001 10.001 0 0 0 17.168-7.268 10.001 10.001 0 0 0-3.026-6.873L64.133 50.01l29.904-29.905A10.001 10.001 0 0 0 86.77 2.937a10.001 10.001 0 0 0-6.874 3.026L49.992 35.867 20.104 5.98a10.001 10.001 0 0 0-7.168-3.048z" style="line-height:normal;text-indent:0;text-align:start;text-decoration-line:none;text-decoration-style:solid;text-decoration-color:#000;text-transform:none;block-progression:tb;isolation:auto;mix-blend-mode:normal" color="#000" font-weight="400" font-family="sans-serif" white-space="normal" overflow="visible" fill-rule="evenodd"/>
</svg>
